HIERARCHY
ROOT hip
{
  OFFSET 0 0 0
  CHANNELS 6 Xposition Yposition Zposition Zrotation Yrotation Xrotation
  JOINT abdomen
  {
    OFFSET 0 20.6881 -0.73152
    CHANNELS 3 Zrotation Xrotation Yrotation
    JOINT chest
    {
      OFFSET 0 11.7043 -0.48768
      CHANNELS 3 Zrotation Xrotation Yrotation
      JOINT neck
      {
        OFFSET 0 22.1894 -2.19456
        CHANNELS 3 Zrotation Xrotation Yrotation
        JOINT head
        {
          OFFSET -0.24384 7.07133 1.2192
          CHANNELS 3 Zrotation Xrotation Yrotation
          JOINT leftEye
          {
            OFFSET 4.14528 8.04674 8.04672
            CHANNELS 3 Zrotation Xrotation Yrotation
            End Site
            {
              OFFSET 1 0 0
            }
          }
          JOINT rightEye
          {
            OFFSET -3.6576 8.04674 8.04672
            CHANNELS 3 Zrotation Xrotation Yrotation
            End Site
            {
              OFFSET 1 0 0
            }
          }
        }
      }
      JOINT rCollar
      {
        OFFSET -2.68224 19.2634 -4.8768
        CHANNELS 3 Zrotation Xrotation Yrotation
        JOINT rShldr
        {
          OFFSET -8.77824 -1.95073 1.46304
          CHANNELS 3 Zrotation Xrotation Yrotation
          JOINT rForeArm
          {
            OFFSET -28.1742 -1.7115 0.48768
            CHANNELS 3 Zrotation Xrotation Yrotation
            JOINT rHand
            {
              OFFSET -22.5879 0.773209 7.07136
              CHANNELS 3 Zrotation Xrotation Yrotation
              JOINT rThumb1
              {
                OFFSET -1.2192 -0.487915 3.41376
                CHANNELS 3 Zrotation Xrotation Yrotation
                JOINT rThumb2
                {
                  OFFSET -3.37035 -0.52449 3.41376
                  CHANNELS 3 Zrotation Xrotation Yrotation
                  End Site
                  {
                    OFFSET -1.78271 -1.18214 1.43049
                  }
                }
              }
              JOINT rIndex1
              {
                OFFSET -7.75947 0.938293 5.60832
                CHANNELS 3 Zrotation Xrotation Yrotation
                JOINT rIndex2
                {
                  OFFSET -2.54057 -0.884171 1.56538
                  CHANNELS 3 Zrotation Xrotation Yrotation
                  End Site
                  {
                    OFFSET -1.62519 -0.234802 1.16502
                  }
                }
              }
              JOINT rMid1
              {
                OFFSET -8.24714 1.18213 3.41376
                CHANNELS 3 Zrotation Xrotation Yrotation
                JOINT rMid2
                {
                  OFFSET -3.10165 -0.590103 1.0647
                  CHANNELS 3 Zrotation Xrotation Yrotation
                  End Site
                  {
                    OFFSET -2.48547 -0.328903 0.83742
                  }
                }
              }
              JOINT rRing1
              {
                OFFSET -8.82822 0.546677 1.51678
                CHANNELS 3 Zrotation Xrotation Yrotation
                JOINT rRing2
                {
                  OFFSET -2.60934 -0.819778 -0.0198488
                  CHANNELS 3 Zrotation Xrotation Yrotation
                  End Site
                  {
                    OFFSET -2.33842 -0.294052 0.168128
                  }
                }
              }
              JOINT rPinky1
              {
                OFFSET -8.27202 -0.0477905 -0.4584
                CHANNELS 3 Zrotation Xrotation Yrotation
                JOINT rPinky2
                {
                  OFFSET -1.82734 -0.647385 -0.700984
                  CHANNELS 3 Zrotation Xrotation Yrotation
                  End Site
                  {
                    OFFSET -1.69225 -0.51767 -0.607171
                  }
                }
              }
            }
          }
        }
      }
      JOINT lCollar
      {
        OFFSET 2.68224 19.2634 -4.8768
        CHANNELS 3 Zrotation Xrotation Yrotation
        JOINT lShldr
        {
          OFFSET 8.77824 -1.95073 1.46304
          CHANNELS 3 Zrotation Xrotation Yrotation
          JOINT lForeArm
          {
            OFFSET 28.1742 -1.7115 0.48768
            CHANNELS 3 Zrotation Xrotation Yrotation
            JOINT lHand
            {
              OFFSET 22.5879 0.773209 7.07136
              CHANNELS 3 Zrotation Xrotation Yrotation
              JOINT lThumb1
              {
                OFFSET 1.2192 -0.487915 3.41376
                CHANNELS 3 Zrotation Xrotation Yrotation
                JOINT lThumb2
                {
                  OFFSET 3.37035 -0.52449 3.41376
                  CHANNELS 3 Zrotation Xrotation Yrotation
                  End Site
                  {
                    OFFSET 1.78271 -1.18214 1.43049
                  }
                }
              }
              JOINT lIndex1
              {
                OFFSET 7.75947 0.938293 5.60832
                CHANNELS 3 Zrotation Xrotation Yrotation
                JOINT lIndex2
                {
                  OFFSET 2.54057 -0.884171 1.56538
                  CHANNELS 3 Zrotation Xrotation Yrotation
                  End Site
                  {
                    OFFSET 1.62519 -0.234802 1.16502
                  }
                }
              }
              JOINT lMid1
              {
                OFFSET 8.24714 1.18213 3.41376
                CHANNELS 3 Zrotation Xrotation Yrotation
                JOINT lMid2
                {
                  OFFSET 3.10165 -0.590103 1.0647
                  CHANNELS 3 Zrotation Xrotation Yrotation
                  End Site
                  {
                    OFFSET 2.48547 -0.328903 0.83742
                  }
                }
              }
              JOINT lRing1
              {
                OFFSET 8.82822 0.546677 1.51678
                CHANNELS 3 Zrotation Xrotation Yrotation
                JOINT lRing2
                {
                  OFFSET 2.60934 -0.819778 -0.0198488
                  CHANNELS 3 Zrotation Xrotation Yrotation
                  End Site
                  {
                    OFFSET 2.33842 -0.294052 0.168128
                  }
                }
              }
              JOINT lPinky1
              {
                OFFSET 8.27202 -0.0477905 -0.4584
                CHANNELS 3 Zrotation Xrotation Yrotation
                JOINT lPinky2
                {
                  OFFSET 1.82734 -0.647385 -0.700984
                  CHANNELS 3 Zrotation Xrotation Yrotation
                  End Site
                  {
                    OFFSET 1.69225 -0.51767 -0.607171
                  }
                }
              }
            }
          }
        }
      }
    }
  }
  JOINT rButtock
  {
    OFFSET -8.77824 4.35084 1.2192
    CHANNELS 3 Zrotation Xrotation Yrotation
    JOINT rThigh
    {
      OFFSET 0 -1.70687 -2.19456
      CHANNELS 3 Zrotation Xrotation Yrotation
      JOINT rShin
      {
        OFFSET 0 -36.8199 0.73152
        CHANNELS 3 Zrotation Xrotation Yrotation
        JOINT rFoot
        {
          OFFSET 0.73152 -45.1104 -5.12064
          CHANNELS 3 Zrotation Xrotation Yrotation
          End Site
          {
            OFFSET -1.1221 -3.69964 12.103
          }
        }
      }
    }
  }
  JOINT lButtock
  {
    OFFSET 8.77824 4.35084 1.2192
    CHANNELS 3 Zrotation Xrotation Yrotation
    JOINT lThigh
    {
      OFFSET 0 -1.70687 -2.19456
      CHANNELS 3 Zrotation Xrotation Yrotation
      JOINT lShin
      {
        OFFSET 0 -36.8199 0.73152
        CHANNELS 3 Zrotation Xrotation Yrotation
        JOINT lFoot
        {
          OFFSET -0.73152 -45.1104 -5.12064
          CHANNELS 3 Zrotation Xrotation Yrotation
          End Site
          {
            OFFSET 1.1221 -3.69964 12.103
          }
        }
      }
    }
  }
}
MOTION
Frames:	4
Frame Time:	0.00833333
-5.86484 85.1388 130.576 0.0 0.0 0.0 0.410575 -0.00336393 0.0117802 0.113455 -0.00539468 0.0196586 3.0946e-15 1.59028e-15 -3.72721e-17 9.24815e-15 1.59028e-14 -8.85213e-17 -0.0 0.0 0.0 -0.0 0.0 0.0 1.68827e-15 -2.25186e-17 1.49089e-16 3.25857e-14 -2.36057e-16 5.96354e-16 5.5943e-13 -1.74135e-13 1.27222e-14 6.37668e-12 1.20364e-13 -8.26944e-14 1.50415e-11 -1.17185e-13 -1.33583e-13 2.59581e-11 -2.00375e-13 -2.36951e-13 1.50444e-11 -1.19271e-13 -1.39944e-13 7.73091 5.47488 0.417314 1.50408e-11 -1.17979e-13 -1.30403e-13 2.90554 0.965183 0.102902 1.50443e-11 -1.17482e-13 -1.35969e-13 10.2786 0.731801 0.0259123 1.50315e-11 -1.11717e-13 -1.30403e-13 2.22167 -0.733487 -0.20892 1.39299e-15 -2.29068e-17 -1.49089e-16 3.14438e-14 -1.36664e-16 -9.93923e-16 5.55852e-13 1.59227e-13 -3.18055e-14 6.37603e-12 -2.09221e-13 -2.22639e-14 1.50424e-11 -1.08234e-13 -1.33583e-13 2.60018e-11 -1.87653e-13 -2.32976e-13 1.50397e-11 -1.11717e-13 -1.30403e-13 -7.73091 5.47488 -0.417314 1.50438e-11 -1.08735e-13 -1.36764e-13 -2.90554 0.965183 -0.102902 1.50396e-11 -1.08636e-13 -1.35969e-13 -10.2786 0.731801 -0.0259123 1.50534e-11 -1.03766e-13 -1.43125e-13 -2.22167 -0.733487 0.20892 -2.03217e-16 0.0 -3.88251e-19 0.770903 -4.17179 -0.0656918 -0.002657 2.00547 -0.0182893 -0.462139 2.16691 0.0961425 2.03217e-16 0.0 3.88251e-19 -0.142936 -2.55997 0.026062 0.00716104 -0.914059 0.0621528 0.453464 3.47456 -0.121181
-5.85883 83.3222 125.552 177.159 -1.9072 -154.369 -0.69309 -6.66479 -1.76233 0.550335 3.93862 -0.542777 -1.12454 3.91247 0.413172 0.752906 -3.85111 1.27117 -0.0 0.0 0.0 -0.0 0.0 0.0 -4.05556e-15 4.04871e-14 -4.38724e-15 23.104 4.39873 -2.11527 -5.81907 -3.06605 8.58379 0.016115 -2.85534 -0.399567 1.67962e-10 -2.94759e-11 -6.94022e-11 2.908e-10 -5.16401e-11 -1.18934e-10 1.67964e-10 -2.94773e-11 -6.94106e-11 7.73091 5.47488 0.417314 1.67963e-10 -2.94757e-11 -6.94037e-11 2.90554 0.965183 0.102902 1.67967e-10 -2.94758e-11 -6.94079e-11 10.2786 0.731801 0.0259123 1.67954e-10 -2.94716e-11 -6.94038e-11 2.22167 -0.733487 -0.20892 -4.29638e-15 4.04847e-14 -4.71958e-15 -20.6703 4.70889 -0.710467 4.04691 -1.80562 -6.35646 -0.00752864 -1.94523 0.272833 9.9514e-11 7.6034e-11 1.51737e-10 1.71392e-10 1.30425e-10 2.62422e-10 9.95112e-11 7.60329e-11 1.51741e-10 -7.73091 5.47488 -0.417314 9.95162e-11 7.60351e-11 1.51734e-10 -2.90554 0.965183 -0.102902 9.95103e-11 7.60353e-11 1.51735e-10 -10.2786 0.731801 -0.0259123 9.95219e-11 7.60382e-11 1.51726e-10 -2.22167 -0.733487 0.20892 -2.03217e-16 0.0 -3.88251e-19 0.903471 -12.2156 1.78051 0.00509856 4.91889 0.051581 -0.658132 -2.12274 -1.25679 2.03217e-16 0.0 3.88251e-19 -0.93314 -10.4885 -2.93961 0.0141315 2.91676 0.0169186 0.539515 1.4863 -0.33785
-5.86219 83.3203 125.579 177.174 -1.7878 -154.186 -2.31309 -13.6734 -3.72894 1.0913 8.09968 -1.14854 -2.38854 8.03897 0.856189 1.74971 -7.91152 2.63543 -0.0 0.0 0.0 -0.0 0.0 0.0 -9.94311e-15 8.6265e-14 -8.51047e-15 47.8871 9.06112 -4.39272 -10.9891 -6.08328 17.7447 -0.0108385 -5.92761 -0.832938 3.32558e-10 -4.89745e-11 -1.46428e-10 5.75881e-10 -8.60738e-11 -2.50937e-10 3.32558e-10 -4.89752e-11 -1.46438e-10 7.73091 5.47488 0.417314 3.32559e-10 -4.89732e-11 -1.46434e-10 2.90554 0.965183 0.102902 3.32564e-10 -4.8974e-11 -1.46437e-10 10.2786 0.731801 0.0259123 3.3255e-10 -4.89715e-11 -1.46435e-10 2.22167 -0.733487 -0.20892 -1.01255e-14 8.62602e-14 -8.88319e-15 -42.3987 9.64895 -1.46785 7.89904 -3.64493 -13.1069 0.00488017 -4.03386 0.566867 1.82313e-10 1.6064e-10 3.257e-10 3.13804e-10 2.75557e-10 5.63253e-10 1.82311e-10 1.60642e-10 3.25705e-10 -7.73091 5.47488 -0.417314 1.82316e-10 1.60643e-10 3.25697e-10 -2.90554 0.965183 -0.102902 1.82309e-10 1.60643e-10 3.25699e-10 -10.2786 0.731801 -0.0259123 1.82318e-10 1.60644e-10 3.25689e-10 -2.22167 -0.733487 0.20892 -2.03217e-16 0.0 -3.88251e-19 1.64366 -20.6847 3.90014 0.00554665 8.00181 0.126397 -1.08788 -6.65498 -2.70995 2.03217e-16 0.0 3.88251e-19 -2.70594 -18.79 -6.31334 0.0281386 6.971 -0.0311949 0.613987 -0.612936 -0.569306
-5.86728 83.2913 125.594 177.244 -1.8045 -154.104 -4.20276 -19.9087 -5.61115 1.66061 11.8221 -1.69987 -3.54596 11.7349 1.26303 2.77993 -11.5303 3.88338 -0.0 0.0 0.0 -0.0 0.0 0.0 -1.55432e-14 1.21506e-13 -1.34599e-14 70.3064 13.1233 -6.49752 -14.7799 -8.37395 26.0119 -0.0722675 -8.56436 -1.21071 4.73804e-10 -8.81933e-11 -2.07939e-10 8.20485e-10 -1.5452e-10 -3.56329e-10 4.73804e-10 -8.81934e-11 -2.07952e-10 7.73091 5.47488 0.417314 4.73806e-10 -8.81912e-11 -2.0795e-10 2.90554 0.965183 0.102902 4.73813e-10 -8.81925e-11 -2.07952e-10 10.2786 0.731801 0.0259123 4.73799e-10 -8.81914e-11 -2.0795e-10 2.22167 -0.733487 -0.20892 -1.56751e-14 1.215e-13 -1.38606e-14 -61.6514 14.1178 -2.1904 10.9594 -5.15072 -19.1402 0.0332357 -5.83516 0.822289 2.68457e-10 2.28319e-10 4.55478e-10 4.62174e-10 3.9165e-10 7.87731e-10 2.68454e-10 2.28322e-10 4.55484e-10 -7.73091 5.47488 -0.417314 2.68461e-10 2.28323e-10 4.55475e-10 -2.90554 0.965183 -0.102902 2.68452e-10 2.28323e-10 4.55477e-10 -10.2786 0.731801 -0.0259123 2.68459e-10 2.28322e-10 4.55466e-10 -2.22167 -0.733487 0.20892 -2.03217e-16 0.0 -3.88251e-19 2.90585 -28.1859 6.07408 -0.00103807 10.7457 0.194134 -1.66556 -10.6777 -4.02982 2.03217e-16 0.0 3.88251e-19 -5.20741 -26.0579 -9.71957 0.0463833 10.5784 -0.0748723 0.666475 -2.48994 -0.772021
